<?xml version="1.0" encoding="UTF-8"?>
<svg id="Layer_1" xmlns="http://www.w3.org/2000/svg" version="1.1" viewBox="0 0 598.2 230.3">
  <!-- Generator: Adobe Illustrator 30.1.0, SVG Export Plug-In . SVG Version: 2.1.1 Build 136)  -->
  <defs>
    <style>
      .st0 {
        fill: none;
      }

      .st1 {
        font-family: MyriadPro-Regular, 'Myriad Pro';
        font-size: 54.2px;
      }

      .st2 {
        fill: #667085;
      }

      .st3 {
        fill: #1e4e39;
      }

      .st4 {
        fill: #fefefe;
      }

      .st5 {
        fill: #c09f4a;
      }
    </style>
  </defs>
  <path class="st2" d="M695.2,80.5h-11.5c-.4,0-.8-.3-.8-.8s.3-.8.8-.8h11.5c.4,0,.8.3.8.8s-.3.8-.8.8Z"/>
  <path class="st2" d="M689.7,88.5h-2c-.4,0-.8-.3-.8-.8s.3-.8.8-.8h2c.4,0,.8.3.8.8s-.3.8-.8.8Z"/>
  <path class="st2" d="M696.2,88.5h-4c-.4,0-.8-.3-.8-.8s.3-.8.8-.8h4c.4,0,.8.3.8.8s-.3.8-.8.8Z"/>
  <path class="st2" d="M699.2,92.5h-11.1c-4,0-5.2-1.2-5.2-5.1v-8.2c0-3.9,1.2-5.1,5.2-5.1h7.1c.4,0,.8.3.8.8s-.3.8-.8.8h-7.1c-3.1,0-3.7.5-3.7,3.6v8.2c0,3.1.5,3.6,3.7,3.6h11.1c3.1,0,3.7-.5,3.7-3.6v-4.1c0-.4.3-.8.8-.8s.8.3.8.8v4.1c0,3.9-1.2,5.1-5.2,5.1Z"/>
  <path class="st2" d="M703.7,78.2h-5.5c-.4,0-.8-.3-.8-.8s.3-.8.8-.8h5.5c.4,0,.8.3.8.8s-.3.8-.8.8Z"/>
  <path class="st2" d="M700.9,81c-.4,0-.8-.3-.8-.8v-5.5c0-.4.3-.8.8-.8s.8.3.8.8v5.5c0,.4-.3.8-.8.8Z"/>
  <line class="st0" x1="41.5" y1="-164.5" x2="112.2" y2="-235.3"/>
  <g>
    <path class="st5" d="M54.1,120.8l-9.4-5,13.2-6.9,21-10.8c6-3.1,11.6-6.2,17.9-8.9l51.6,26.4c-4.3,2.9-8.8,4.8-13.5,7.2l-38.4,19.7-42.4-21.7ZM115.7,123.6l15.3-7.9-32.3-16.4c-1.4-1.1-3.1-.9-4.4.2l-32.1,16.3,34.4,17.5,19.2-9.7Z"/>
    <path class="st5" d="M71.5,151.5l14.6,7.3.2-7.5-21.4-11v50.3c-3.1-1.2-5.5-2.6-8-4.1v-50.3s-14.6-7.6-14.6-7.6c0-3.1-.3-6,.2-8.9l51.9,26.6v25.6s-14.8-7.3-14.8-7.3v24.5s14.6,7.7,14.6,7.7c.2,3.1.2,5.9,0,9.1l-22.8-11.9v-42.5Z"/>
    <path class="st3" d="M107,151.2v41.4s14.5-7.1,14.5-7.1c.3,2.9.1,5.8,0,8.8l-22.6,11.7v-59.7c0,0,51.9-26.6,51.9-26.6v59.3c-2.5,1.5-5,2.8-8,4.1v-50.2c0,0-35.9,18.3-35.9,18.3Z"/>
    <path class="st3" d="M119.6,74.5c-4.2-3.1-8.3-5.6-12.9-8.1-4.6,4.7-9.7,8.2-15.1,11.8s-14.8,7.5-13.9,15.7l-7.4,3.7c-2.7-14.8,7-19.4,17.3-25.7s13.1-9.2,18.3-15.6c8.7,7,17.1,9.2,24.4,17.7,5.4,6.9,7.8,15.5,6.3,24.3h14.5c0,0,0,13.5,0,13.5l-22.8-11.6c2.8-9.8-.3-19.6-8.5-25.6Z"/>
    <path class="st5" d="M65.3,100.2c-3.5,1.6-6.5,3.3-9.7,5l-13.1,6.6-.2-13.5h14.6c-2-11.1,2.3-21.7,10.7-28.7,3.7-3.2,7.8-5.4,12.1-7.9,6.2-3.6,11.8-7.9,16.3-13.9-7.3-1.6-11.9-7.7-10.8-14.8s7.3-11.8,14.3-10.6l-4.3,2.2c-5.4,2.7-5.4,10.9-1.4,15.2s10.7,4.6,15.8.1c-1.5,5.4-6.9,7.6-11.8,8,.9,1.8,2.4,3,4,4.9-4.1,5.6-9.4,9.8-15.3,13.6s-8.4,4.9-12.4,7.8c-8.3,6-11.8,15.9-8.8,26Z"/>
    <path class="st5" d="M121.8,160.4v16.9c-2.5,1.6-5,3.1-8.2,4.4v-26.2c0,0,15.2-8,15.2-8,2.5-1.3,4.8-2.8,7.6-3.7v42.9c-2.5,1.5-4.9,3-8.1,4.2l-.2-33.6-6.3,3.1Z"/>
    <path class="st3" d="M50.3,183.1l-8-4v-42.7c2.9,1.2,5.3,2.6,8,4.1v42.6Z"/>
    <path class="st5" d="M115.7,94.1c.7-9.1-8.2-11.7-14.8-16.6,1.7-1.9,3.7-3.4,5.9-5l7.4,4.6c6.9,4.3,10.7,12.2,9,20.4l-7.5-3.4Z"/>
    <path class="st3" d="M94.2,188.9l-7.9-4v-9.2c.1,0,8,4,8,4,0,3,.2,5.9,0,9.2Z"/>
    <circle class="st5" cx="109.6" cy="39.6" r=".2"/>
    <path class="st3" d="M104.7,123.7l-23.1-12c2.3-1.4,4.6-2.5,7.1-3.7l22.9,12.1-6.9,3.7Z"/>
  </g>
  <polyline class="st4" points="228.2 -57.9 228.2 23 282.9 51.1 336.9 23 336.8 -57.8"/>
  <text class="st1" transform="translate(180.7 134.3)"><tspan x="0" y="0">Musaadah</tspan></text>
</svg>