<?xml version="1.0" encoding="UTF-8"?>
<svg id="Layer_1" data-name="Layer 1" xmlns="http://www.w3.org/2000/svg" width="35" height="35" viewBox="0 0 35 35">
  <defs>
    <style>
      .cls-1 {
        fill: #0063bc;
      }

      .cls-2 {
        fill: #0a7eff;
      }

      .cls-3 {
        fill: #c09f4a;
      }
    </style>
  </defs>
  <path class="cls-2" d="M10.3,18.63l-1.59-.85,2.23-1.17,3.56-1.83c1.02-.52,1.96-1.05,3.03-1.51l8.74,4.47c-.73.49-1.49.81-2.29,1.22l-6.5,3.34s-7.18-3.67-7.18-3.67ZM20.72,19.11l2.59-1.34-5.47-2.78c-.24-.19-.52-.15-.74.03l-5.43,2.76,5.82,2.96,3.25-1.64h-.02Z"/>
  <path class="cls-2" d="M13.24,23.83l2.47,1.24.03-1.27-3.62-1.86v8.52c-.52-.2-.93-.44-1.35-.69v-8.52l-2.47-1.29c0-.52-.05-1.02.03-1.51l8.79,4.5v4.33l-2.51-1.24v4.15l2.47,1.3c.03.52.03,1,0,1.54l-3.86-2.01v-7.2h.02Z"/>
  <path class="cls-1" d="M19.25,23.78v7.01l2.45-1.2c.05.49.02.98,0,1.49l-3.83,1.98v-10.11l8.79-4.5v10.04c-.42.25-.85.47-1.35.69v-8.5l-6.08,3.1h.02Z"/>
  <path class="cls-1" d="M21.38,10.79c-.71-.52-1.41-.95-2.18-1.37-.78.8-1.64,1.39-2.56,2s-2.51,1.27-2.35,2.66l-1.25.63c-.46-2.51,1.19-3.28,2.93-4.35s2.22-1.56,3.1-2.64c1.47,1.19,2.9,1.56,4.13,3,.91,1.17,1.32,2.62,1.07,4.11h2.45v2.29l-3.86-1.96c.47-1.66-.05-3.32-1.44-4.33l-.03-.02Z"/>
  <path class="cls-2" d="M12.19,15.15c-.59.27-1.1.56-1.64.85l-2.22,1.12-.03-2.29h2.47c-.34-1.88.39-3.67,1.81-4.86.63-.54,1.32-.91,2.05-1.34,1.05-.61,2-1.34,2.76-2.35-1.24-.27-2.01-1.3-1.83-2.51s1.24-2,2.42-1.79l-.73.37c-.91.46-.91,1.85-.24,2.57s1.81.78,2.68.02c-.25.91-1.17,1.29-2,1.35.15.3.41.51.68.83-.69.95-1.59,1.66-2.59,2.3-1,.64-1.42.83-2.1,1.32-1.41,1.02-2,2.69-1.49,4.4h0Z"/>
  <path class="cls-2" d="M21.76,25.34v2.86c-.42.27-.85.52-1.39.74v-4.44l2.57-1.35c.42-.22.81-.47,1.29-.63v7.26c-.42.25-.83.51-1.37.71l-.03-5.69-1.07.52Z"/>
  <path class="cls-1" d="M9.65,29.18l-1.35-.68v-7.23c.49.2.9.44,1.35.69v7.21Z"/>
  <path class="cls-2" d="M20.72,14.11c.12-1.54-1.39-1.98-2.51-2.81.29-.32.63-.58,1-.85l1.25.78c1.17.73,1.81,2.07,1.52,3.45l-1.27-.58Z"/>
  <path class="cls-1" d="M17.08,30.16l-1.34-.68v-1.56s1.35.68,1.35.68c0,.51.03,1,0,1.56h-.02Z"/>
  <circle class="cls-3" cx="19.69" cy="4.89" r=".03"/>
  <path class="cls-1" d="M18.86,19.12l-3.91-2.03c.39-.24.78-.42,1.2-.63l3.88,2.05-1.17.63v-.02Z"/>
</svg>